<?xml version="1.0" standalone="no"?><!DOCTYPE svg PUBLIC "-//W3C//DTD SVG 1.1//EN" "http://www.w3.org/Graphics/SVG/1.1/DTD/svg11.dtd"><svg t="1576419309480" class="icon" viewBox="0 0 1024 1024" version="1.1" xmlns="http://www.w3.org/2000/svg" p-id="1142" width="24" height="24" xmlns:xlink="http://www.w3.org/1999/xlink"><defs><style type="text/css"></style></defs><path d="M512 960a224 224 0 0 1-160-380.48V224a160 160 0 0 1 320 0v355.52A224 224 0 0 1 512 960z m0-832a96 96 0 0 0-96 96v369.28a32 32 0 0 1-10.56 23.68 160 160 0 1 0 213.12 0 32 32 0 0 1-10.56-23.68V224a96 96 0 0 0-96-96z" fill="#8a8a8a" p-id="1143"></path><path d="M512 736m-64 0a64 64 0 1 0 128 0 64 64 0 1 0-128 0Z" fill="#8a8a8a" p-id="1144"></path><path d="M512 832a96 96 0 1 1 96-96 96 96 0 0 1-96 96z m0-128a32 32 0 1 0 32 32 32 32 0 0 0-32-32zM512 544h-96a32 32 0 0 1 0-64h96a32 32 0 0 1 0 64zM512 288h-96a32 32 0 0 1 0-64h96a32 32 0 0 1 0 64zM512 416h-96a32 32 0 0 1 0-64h96a32 32 0 0 1 0 64z" fill="#8a8a8a" p-id="1145"></path></svg>