<?xml version="1.0" standalone="no"?><!DOCTYPE svg PUBLIC "-//W3C//DTD SVG 1.1//EN" "http://www.w3.org/Graphics/SVG/1.1/DTD/svg11.dtd"><svg t="1576419238735" class="icon" viewBox="0 0 1024 1024" version="1.1" xmlns="http://www.w3.org/2000/svg" p-id="7735" width="24" height="24" xmlns:xlink="http://www.w3.org/1999/xlink"><defs><style type="text/css"></style></defs><path d="M730.578085 472.760996L578.614549 676.896296 356.929711 312.625979 1.351076 790.285529l69.547901 51.774388 278.805729-374.53705 225.904241 371.184647 74.056304-45.069583-22.433642-36.861977 96.121471-129.118069 225.897015 371.184647 74.056304-45.069583zM831.070684 323.651337c83.528286 0 151.479461-67.951175 151.479461-151.472236 0-83.528286-67.951175-151.472236-151.479461-151.472236-83.521061 0-151.472236 67.951175-151.472236 151.472236 0.007225 83.528286 67.9584 151.472236 151.472236 151.472236z m0-216.244408c35.713201 0 64.779397 29.058971 64.779397 64.772172s-29.058971 64.772172-64.779397 64.772173-64.772172-29.051746-64.772173-64.772173 29.058971-64.772172 64.772173-64.772172z" fill="#8a8a8a" p-id="7736"></path></svg>