<?xml version="1.0" standalone="no"?><!DOCTYPE svg PUBLIC "-//W3C//DTD SVG 1.1//EN" "http://www.w3.org/Graphics/SVG/1.1/DTD/svg11.dtd"><svg t="1576415418760" class="icon" viewBox="0 0 1024 1024" version="1.1" xmlns="http://www.w3.org/2000/svg" p-id="3167" width="28" height="24" xmlns:xlink="http://www.w3.org/1999/xlink"><defs><style type="text/css"></style></defs><path d="M225.745 451.49c4.655 4.655 9.31 9.31 16.291 9.31 4.655 0 6.982 0 11.637-2.327 9.309-4.655 11.636-18.618 6.982-27.928 0 0-60.51-95.418-9.31-160.581 27.928-37.237 32.582-81.455 13.964-130.328C251.345 104.727 230.4 79.127 230.4 76.8c-6.982-9.31-18.618-9.31-27.927-2.327-6.982 6.982-9.31 18.618-2.328 27.927 0 0 67.491 83.782 18.619 144.29-67.491 83.783 4.654 200.146 6.981 204.8z m558.546-6.98c4.654 4.654 9.309 9.308 16.29 9.308 4.655 0 6.983 0 11.637-2.327 9.31-4.655 11.637-18.618 6.982-27.927 0 0-60.51-95.419-9.31-160.582 27.928-34.91 32.583-81.455 13.965-130.327-13.964-34.91-34.91-60.51-34.91-62.837-6.981-9.309-18.618-9.309-27.927-2.327-9.309 6.982-9.309 18.618-2.327 27.927 0 0 67.49 83.782 18.618 144.291-69.818 86.11 2.327 200.146 6.982 204.8z m130.327 0c4.655 4.654 9.31 9.308 16.291 9.308 4.655 0 6.982 0 11.636-2.327 9.31-4.655 11.637-18.618 6.982-27.927 0 0-60.509-95.419-9.309-160.582 27.927-34.91 32.582-81.455 13.964-130.327-13.964-34.91-34.91-60.51-34.91-62.837-6.981-9.309-18.617-9.309-27.927-2.327-9.309 6.982-9.309 18.618-2.327 27.927 0 0 67.491 83.782 18.618 144.291-69.818 86.11 2.328 200.146 6.982 204.8z m-819.2 6.98c4.655 4.655 9.31 9.31 16.291 9.31 4.655 0 6.982 0 11.636-2.327 9.31-4.655 11.637-18.618 4.655-27.928 0 0-60.51-95.418-9.31-160.581 30.255-37.237 34.91-81.455 16.292-132.655-13.964-34.909-34.91-60.509-34.91-60.509-6.981-9.31-18.617-9.31-27.927-4.655-9.309 6.982-9.309 20.946-2.327 27.928 0 0 67.491 83.782 18.618 144.29-67.49 86.11 4.655 200.146 6.982 207.128z m870.4 409.6c-13.963-18.617-34.909-27.926-55.854-30.254-2.328-195.49-144.291-356.072-328.146-388.654 13.964-16.291 23.273-37.237 23.273-60.51 0-51.2-41.891-90.763-90.764-90.763-51.2 0-90.763 41.891-90.763 90.764 0 23.272 9.309 44.218 23.272 60.509-186.181 30.254-330.472 193.163-335.127 388.654-20.945 2.328-37.236 11.637-51.2 27.928-13.964 18.618-23.273 41.89-23.273 67.49 0 25.6 6.982 48.873 23.273 67.491C76.8 1012.364 97.745 1024 121.02 1024h784.29c23.273 0 44.218-11.636 60.51-30.255 13.963-18.618 23.272-41.89 23.272-67.49 0-23.273-9.31-46.546-23.273-65.164z m-451.49-525.963c25.6 0 44.217 20.946 44.217 44.218 0 25.6-20.945 44.219-44.218 44.219-25.6 0-44.218-20.946-44.218-44.219 0-23.272 18.618-44.218 44.218-44.218z m414.254 628.364c-4.655 4.654-11.637 11.636-23.273 11.636L118.691 972.8c-11.636 0-20.946-6.982-23.273-13.964-6.982-9.309-11.636-23.272-11.636-37.236 0-13.964 4.654-27.927 11.636-37.236 4.655-4.655 11.637-11.637 23.273-11.637l514.327 2.328c13.964 0 23.273-9.31 23.273-23.273s-9.31-23.273-23.273-23.273l-474.763-2.327c2.327-190.837 160.581-346.764 351.418-346.764H512c193.164 0 349.09 155.927 349.09 349.091h-74.472c-13.963 0-23.273 9.31-23.273 23.273s9.31 23.273 23.273 23.273h116.364c11.636 0 20.945 6.981 23.273 13.963 6.981 9.31 11.636 23.273 11.636 37.237 2.327 13.963-2.327 27.927-9.31 37.236z" p-id="3168" fill="#8a8a8a"></path></svg>