<?xml version="1.0" standalone="no"?><!DOCTYPE svg PUBLIC "-//W3C//DTD SVG 1.1//EN"
        "http://www.w3.org/Graphics/SVG/1.1/DTD/svg11.dtd">
<svg t="1576415512770" class="icon" viewBox="0 0 1024 1024" version="1.1" xmlns="http://www.w3.org/2000/svg" p-id="3509"
     width="24" height="24" xmlns:xlink="http://www.w3.org/1999/xlink">
    <defs>
        <style type="text/css"></style>
    </defs>
    <path d="M935.292 958.682H729.154c-13.727 0-24.855-11.129-24.855-24.855v-38.712H320.181v38.712c0 13.727-11.129 24.855-24.855 24.855H90.189c-13.726 0-24.856-11.129-24.856-24.855V408.563c0-13.726 11.13-24.856 24.856-24.856h38.712V138.436c0-41.18 33.375-74.568 74.568-74.568h618.542c41.18 0 74.567 33.388 74.567 74.568v245.271h38.713c13.727 0 24.854 11.13 24.854 24.856v525.263c0.001 13.727-11.126 24.856-24.853 24.856zM832.866 152.436c0-13.727-11.128-24.856-24.854-24.856H216.469c-13.726 0-24.856 11.129-24.856 24.856v231.271h41.712c13.726 0 22.855 11.13 22.855 24.856v166.992h512.118V408.563c0-13.726 11.129-24.856 24.855-24.856h39.712V152.436z m63.572 294.984h-64.426v166.99c0 13.727-11.129 24.856-24.857 24.856H217.326c-13.728 0-24.856-11.13-24.856-24.856V447.419h-64.424v448.55H256.47v-38.712c0-13.727 11.129-24.855 24.856-24.855h460.829c13.729 0 24.857 11.129 24.857 24.855v38.712h129.426V447.42z"
          p-id="3510" fill="#8a8a8a"></path>
</svg>