<?xml version="1.0" standalone="no"?><!DOCTYPE svg PUBLIC "-//W3C//DTD SVG 1.1//EN"
        "http://www.w3.org/Graphics/SVG/1.1/DTD/svg11.dtd">
<svg t="1576415548777" class="icon" viewBox="0 0 1024 1024" version="1.1" xmlns="http://www.w3.org/2000/svg" p-id="4382"
     width="24" height="24" xmlns:xlink="http://www.w3.org/1999/xlink">
    <defs>
        <style type="text/css"></style>
    </defs>
    <path transform="scale(1.2,1.2)" d="M506.538667 356.864v160.5632h160.597333a25.6 25.6 0 1 1 0 51.2h-186.1632a25.6 25.6 0 0 1-25.6-25.6v-186.1632a25.6 25.6 0 0 1 51.2 0zM512 170.666667c188.416 0 341.333333 152.917333 341.333333 341.333333s-152.917333 341.333333-341.333333 341.333333S170.666667 700.416 170.666667 512 323.584 170.666667 512 170.666667z m0 51.2A290.269867 290.269867 0 0 0 221.866667 512c0 160.1536 129.979733 290.133333 290.133333 290.133333s290.133333-129.979733 290.133333-290.133333-129.979733-290.133333-290.133333-290.133333z"
          fill="#8a8a8a" p-id="4383"></path>
</svg>