<svg class="icon" viewBox="0 0 1675 1024" version="1.1" xmlns="http://www.w3.org/2000/svg" p-id="1154"
     width="24" height="24">
    <g transform="translate(-240,-70) scale(1.5,1.5)">
        <path d="M1164.00097 409.731879c-12.846545-72.184242-70.702545-129.225697-142.917818-140.404364-4.778667-0.73697-5.352727-2.482424-5.34497-6.531879 0.108606-47.825455 0.077576-95.658667 0.06206-143.484121 0-11.442424-5.794909-17.299394-17.128727-17.299394-114.152727-0.007758-228.305455 0.015515-342.458182-0.023273-18.664727-0.007758-37.267394 0.015515-55.505454 5.073455-64.667152 17.943273-107.900121 74.635636-107.900121 141.777455v657.927757c0 1.667879-0.03103 3.335758 0.015515 5.003637 0.248242 8.843636 6.353455 15.026424 15.181575 15.220363 5.329455 0.116364 10.666667 0.03103 15.996122 0.023273 13.521455 0 18.804364-5.228606 18.804363-18.62594V576.426667c0-109.653333-0.038788-219.306667 0.015515-328.96 0.023273-52.262788 42.651152-95.294061 94.968243-95.387152 107.822545-0.193939 215.645091-0.038788 323.459879-0.147394 3.770182-0.007758 4.654545 0.954182 4.63903 4.670061-0.155152 34.164364-0.093091 68.32097-0.093091 102.485333 0 9.859879 0 9.859879-9.728 11.96994-79.111758 17.113212-136.471273 88.304485-136.323879 169.115151 0.007758 3.250424 0.155152 4.964848 4.383031 4.957091 112.818424-0.139636 225.644606-0.131879 338.46303-0.023273 3.708121 0 4.344242-1.256727 4.274424-4.561454a195.196121 195.196121 0 0 0-2.862545-30.813091z" fill="#8a8a8a"></path>
        <path d="M843.388121 547.979636c6.322424 0.093091 12.652606 0.100848 18.975031 0 9.115152-0.147394 15.274667-6.314667 15.429818-15.429818 0.100848-5.825939 0.015515-11.651879 0.015515-17.477818 0-5.825939 0.069818-11.651879-0.015515-17.477818-0.131879-9.161697-6.237091-15.398788-15.305697-15.561697a525.568 525.568 0 0 0-19.471515 0c-8.820364 0.170667-15.065212 6.353455-15.166061 15.173818a1636.57697 1636.57697 0 0 0 0 35.452121c0.100848 9.076364 6.384485 15.189333 15.538424 15.321212zM1004.412121 482.071273a343.58303 343.58303 0 0 0-20.968727-0.015515c-8.246303 0.232727-14.444606 6.438788-14.568727 14.731636a1241.31297 1241.31297 0 0 0 0 36.452848c0.124121 8.277333 6.345697 14.467879 14.592 14.700606 6.818909 0.193939 13.653333 0.178424 20.472242 0.015516 8.510061-0.201697 14.638545-6.43103 14.840243-14.987637 0.139636-5.818182 0.023273-11.651879 0.023272-17.477818-0.007758-6.322424 0.162909-12.652606-0.046545-18.97503-0.256-8.013576-6.345697-14.173091-14.343758-14.444606zM1149.432242 482.07903a337.454545 337.454545 0 0 0-20.968727-0.015515c-8.254061 0.232727-14.467879 6.423273-14.592 14.708364a1241.31297 1241.31297 0 0 0 0 36.452848c0.124121 8.285091 6.330182 14.483394 14.568727 14.723879 6.818909 0.193939 13.653333 0.178424 20.472243 0.015515 8.517818-0.201697 14.661818-6.415515 14.863515-14.972121 0.139636-5.988848 0.023273-11.985455 0.03103-17.974303v-17.477818c0-0.333576 0-0.667152-0.015515-1.000727-0.418909-8.013576-6.361212-14.188606-14.359273-14.460122zM877.808485 596.208485c-0.271515-8.812606-6.376727-14.995394-15.197091-15.173818a509.145212 509.145212 0 0 0-19.471515 0c-9.060848 0.162909-15.212606 6.4-15.290182 15.569454a1875.161212 1875.161212 0 0 0 0.007758 34.955637c0.085333 9.107394 6.314667 15.282424 15.429818 15.42206 6.322424 0.100848 12.652606 0.093091 18.97503 0 9.363394-0.139636 15.437576-6.337939 15.553939-15.817697 0.069818-5.655273 0.015515-11.318303 0.015516-16.981333v-16.973576l-0.023273-1.000727zM983.202909 646.927515c6.981818 0.232727 13.986909 0.209455 20.968727 0.015515 8.246303-0.22497 14.460121-6.43103 14.584243-14.708363 0.178424-12.148364 0.178424-24.304485 0-36.452849-0.124121-8.285091-6.322424-14.483394-14.576485-14.723879a383.232 383.232 0 0 0-20.472242-0.015515c-8.517818 0.201697-14.654061 6.415515-14.855758 14.979879-0.139636 5.988848-0.03103 11.985455-0.03103 17.974303v17.477818c0 0.333576 0 0.667152 0.015515 1.000728 0.434424 8.021333 6.376727 14.188606 14.36703 14.452363zM1149.036606 581.050182a391.563636 391.563636 0 0 0-20.472242 0c-8.277333 0.217212-14.545455 6.36897-14.685091 14.615273a1241.31297 1241.31297 0 0 0-0.015515 36.452848c0.116364 8.510061 6.415515 14.654061 14.972121 14.840242 6.485333 0.139636 12.986182 0.108606 19.471515 0.015516 9.130667-0.139636 15.313455-6.291394 15.468606-15.391031 0.100848-5.825939 0.015515-11.651879 0.015515-17.477818 0-5.988848 0.100848-11.985455-0.023273-17.974303-0.162909-8.587636-6.244848-14.855758-14.731636-15.080727zM862.572606 680.029091a509.145212 509.145212 0 0 0-19.471515 0c-8.851394 0.162909-15.13503 6.306909-15.243636 15.096242a1588.441212 1588.441212 0 0 0-0.007758 35.452122c0.085333 9.091879 6.337939 15.251394 15.460848 15.39103 6.322424 0.100848 12.652606 0.093091 18.975031 0 9.146182-0.139636 15.344485-6.275879 15.507394-15.352243 0.108606-5.825939 0.023273-11.651879 0.015515-17.477818 0-5.988848 0.100848-11.985455-0.023273-17.974303-0.186182-8.797091-6.376727-14.964364-15.212606-15.13503zM1003.969939 680.044606a383.232 383.232 0 0 0-20.472242 0.007758c-8.261818 0.232727-14.491152 6.407758-14.62303 14.677333a1189.60097 1189.60097 0 0 0 0 36.452848c0.124121 8.494545 6.454303 14.599758 15.041939 14.778182a451.258182 451.258182 0 0 0 19.975758-0.007757c8.525576-0.201697 14.685091-6.4 14.894545-14.941091 0.147394-5.988848 0.03103-11.985455 0.03103-17.974303s0.108606-11.985455-0.023272-17.974303c-0.201697-8.564364-6.322424-14.801455-14.824728-15.018667zM1148.974545 680.044606a383.232 383.232 0 0 0-20.472242 0.007758c-8.261818 0.232727-14.491152 6.407758-14.62303 14.677333a1189.60097 1189.60097 0 0 0 0 36.452848c0.124121 8.494545 6.454303 14.599758 15.041939 14.778182a451.258182 451.258182 0 0 0 19.975758-0.007757c8.525576-0.201697 14.685091-6.4 14.894545-14.941091 0.147394-5.988848 0.03103-11.985455 0.03103-17.974303s0.108606-11.985455-0.023272-17.974303c-0.209455-8.564364-6.322424-14.801455-14.824728-15.018667zM862.603636 779.031273a493.723152 493.723152 0 0 0-19.471515 0c-9.060848 0.162909-15.158303 6.4-15.297939 15.569454-0.085333 5.825939-0.015515 11.651879-0.015515 17.477818 0 5.825939-0.077576 11.651879 0.023272 17.477819 0.155152 9.107394 6.322424 15.274667 15.437576 15.42206 6.322424 0.100848 12.652606 0.093091 18.97503 0 9.153939-0.131879 15.437576-6.252606 15.530667-15.321212a1588.441212 1588.441212 0 0 0-0.007757-35.452121c-0.100848-8.820364-6.345697-14.995394-15.173819-15.173818zM1004.171636 779.054545a383.232 383.232 0 0 0-20.472242-0.015515c-8.517818 0.209455-14.723879 6.423273-14.832485 14.987637-0.155152 11.985455-0.155152 23.970909 0 35.948606 0.108606 8.556606 6.330182 14.770424 14.848 14.972121a451.258182 451.258182 0 0 0 19.975758 0.007758c8.789333-0.178424 14.933333-6.4 15.104-15.243637 0.116364-5.825939 0.023273-11.651879 0.015515-17.477818 0-6.159515 0.131879-12.31903-0.038788-18.478545-0.22497-8.261818-6.345697-14.460121-14.599758-14.700607zM1149.207273 779.062303a383.232 383.232 0 0 0-20.472243-0.015515c-8.525576 0.201697-14.677333 6.4-14.886788 14.948848-0.147394 5.988848-0.03103 11.985455-0.03103 17.974303s-0.108606 11.985455 0.023273 17.974303c0.193939 8.564364 6.322424 14.801455 14.824727 15.01091 6.818909 0.162909 13.653333 0.178424 20.472243-0.007758 8.246303-0.232727 14.483394-6.415515 14.607515-14.685091 0.186182-12.148364 0.178424-24.304485 0-36.452848-0.100848-8.292848-6.291394-14.506667-14.537697-14.747152z" fill="#8a8a8a"></path>
    </g>
</svg>