<svg class="icon" viewBox="0 0 1024 1024" version="1.1" xmlns="http://www.w3.org/2000/svg"
     width="24" height="24">
    <path transform="translate(0,100)" d="M960.99 440.302c-0.241-8.859-6.324-15.084-15.131-15.267a511.03 511.03 0 0 0-19.498-0.007c-9.09 0.159-15.199 6.381-15.342 15.556-0.086 5.499-0.167 11.005 0.042 16.497 0.111 2.922-0.514 4.093-3.779 4.001-8.659-0.244-17.334-0.228-25.995-0.008-3.222 0.082-4.061-1.031-4.578-4.113-6.771-40.37-13.808-80.696-20.579-121.067-1.842-10.983-4.923-21.858-5.057-33.019-0.319-26.495-0.078-52.997-0.074-79.496 0.005-36.165 0.014-72.331-0.007-108.496-0.006-10.802-5.928-16.815-16.55-16.877-6.166-0.036-12.336-0.122-18.499 0.033-8.549 0.215-14.647 6.399-14.92 14.962-0.095 2.997-0.384 6.054 0.056 8.987 0.785 5.225-1.344 6.125-6.213 6.122-187.16-0.13-374.321-0.11-561.481-0.11-1 0-2.012-0.102-2.997 0.019-2.528 0.311-3.601-0.528-3.443-3.269 0.221-3.82 0.125-7.665 0.034-11.496-0.211-8.844-6.341-15.028-15.169-15.223-5.497-0.122-10.999-0.033-16.499-0.029-12.825 0.008-18.308 5.43-18.309 18.132-0.004 59.998 0.001 119.996-0.012 179.994 0 1.995 0.07 4.028-0.265 5.98-8.902 51.822-17.874 103.633-26.737 155.462-0.467 2.732-1.554 3.522-4.216 3.484-9.498-0.137-19-0.149-28.497 0.006-2.697 0.044-3.402-0.852-3.326-3.42 0.168-5.661 0.116-11.332 0.034-16.998-0.136-9.389-6.319-15.5-15.784-15.628-5.166-0.07-10.333-0.015-15.499-0.013-13.428 0.005-18.698 5.285-18.698 18.745C64 573.574 64 703.403 64 833.232c0 25.666-0.044 51.332 0.025 76.997 0.025 9.453 6.236 15.619 15.643 15.754 5.499 0.079 10.999 0.022 16.499 0.015 12.138-0.015 17.821-5.613 17.83-17.603 0.013-17.833 0.18-35.668-0.116-53.496-0.078-4.682 0.887-6.033 5.854-6.027 130.828 0.161 261.657 0.128 392.486 0.128 131.162 0 262.325 0.026 393.487-0.111 4.45-0.005 5.466 1.102 5.404 5.453-0.264 18.496-0.152 36.997-0.095 55.497 0.031 10.025 6.177 16.07 16.259 16.154 4.999 0.042 10 0.009 14.999 0.007 13.457-0.004 18.723-5.263 18.723-18.713 0.002-154.495 0.002-308.99 0.002-463.485 0-1.166 0.022-2.334-0.01-3.5z m-821.056 75.787c-3.52 19.477-6.792 38.999-10.155 58.504-4.635 26.881-9.268 53.763-13.921 80.641-0.301 1.738-0.768 3.447-1.158 5.169l-0.7-0.118v-4.3c0-46.646 0.06-93.292-0.103-139.938-0.015-4.185 1.024-5.438 5.19-5.143 5.47 0.387 11.016 0.437 16.477-0.011 4.529-0.37 5.096 1.177 4.37 5.196z m19.085 282.96c-4.818-0.173-9.65-0.154-14.47-0.008-2.421 0.073-2.738-0.932-2.379-2.991 6.194-35.505 12.349-71.018 18.518-106.528 0.106-0.613 0.28-1.214 0.422-1.821l0.889-0.118c0 36.092-0.017 72.183 0.04 108.275 0.003 2.281-0.518 3.281-3.02 3.191z m621.89-615.851c-0.032-3.928 0.586-5.831 5.021-5.263 4.882 0.625 11.484-2.048 14.279 1.108 2.427 2.74 0.754 9.171 0.776 13.971 0.046 9.819 0.014 19.639 0.014 29.459 0 13.481-0.128 26.964 0.086 40.442 0.057 3.598-1.051 4.636-4.494 4.263-5.06-0.549-11.87 2.143-14.755-1.125-2.512-2.846-0.814-9.486-0.822-14.45-0.033-22.803 0.081-45.605-0.105-68.405z m-76.057-5.267c7.489 0.211 14.991 0.171 22.483 0.015 2.693-0.056 3.741 0.553 3.729 3.519-0.109 27.316-0.103 54.632-0.005 81.948 0.01 2.804-0.718 3.731-3.601 3.65a451.47 451.47 0 0 0-22.981-0.071c-2.992 0.069-3.549-1.084-3.527-3.766 0.112-13.657 0.052-27.316 0.052-40.974 0-13.491 0.105-26.984-0.078-40.473-0.044-3.154 0.901-3.934 3.928-3.848z m-80.762-0.004c7.651 0.227 15.317 0.188 22.971 0.014 2.874-0.065 4.037 0.46 4.019 3.747-0.143 27.136-0.116 54.273-0.028 81.409 0.009 2.762-0.697 3.797-3.605 3.726-7.987-0.195-15.983-0.238-23.969-0.063-3.033 0.067-3.547-1.156-3.526-3.815 0.105-13.651 0.049-27.303 0.049-40.954 0-13.319 0.111-26.639-0.079-39.955-0.048-3.314 0.937-4.205 4.168-4.109z m-85.152 3.605c-0.011-2.887 0.863-3.655 3.661-3.592 7.824 0.175 15.662 0.258 23.48-0.028 3.535-0.129 4.012 1.27 3.981 4.299-0.138 13.323-0.06 26.649-0.06 39.973 0 13.325-0.093 26.65 0.068 39.973 0.038 3.184-0.744 4.346-4.115 4.221-7.652-0.284-15.321-0.274-22.98-0.147-2.852 0.047-4.069-0.456-4.052-3.752 0.14-26.982 0.123-53.965 0.017-80.947z m-76.567-3.613c7.825 0.258 15.665 0.153 23.496 0.039 2.309-0.034 3.186 0.566 3.179 3.043-0.077 27.333-0.075 54.666-0.002 81.999 0.007 2.435-0.803 3.115-3.151 3.079-8.165-0.127-16.336-0.208-24.497-0.008-3.083 0.076-3.466-1.204-3.446-3.808 0.105-13.499 0.049-26.999 0.049-40.499 0-13.167 0.137-26.335-0.09-39.498-0.061-3.595 1.021-4.461 4.462-4.347z m-85.428 3.336c-0.01-2.715 0.897-3.35 3.435-3.306 7.996 0.14 16.002 0.235 23.992-0.035 3.397-0.115 3.705 1.317 3.682 4.09-0.113 13.33-0.051 26.661-0.051 39.992 0 13.331-0.084 26.663 0.064 39.992 0.033 3.004-0.7 4.068-3.873 3.962-7.824-0.262-15.662-0.247-23.491-0.131-2.721 0.041-3.773-0.621-3.761-3.579 0.104-26.995 0.099-53.99 0.003-80.985z m-76.936-3.336c7.809 0.255 15.635 0.204 23.448 0.017 2.866-0.069 3.614 0.829 3.604 3.64-0.1 26.612-0.127 53.225 0.023 79.837 0.02 3.477-1.232 4.116-4.303 4.035-7.646-0.203-15.303-0.257-22.948-0.073-3.081 0.074-3.938-0.858-3.9-3.924 0.164-13.138 0.07-26.279 0.07-39.419 0-13.306 0.096-26.614-0.07-39.918-0.04-3.174 0.708-4.305 4.076-4.195zM227 221.516c0-13.143 0.102-26.287-0.073-39.428-0.043-3.22 0.777-4.4 4.109-4.151 4.776 0.357 11.041-1.505 13.979 0.886 3.11 2.531 0.914 9.034 0.937 13.789 0.107 22.625-0.035 45.252 0.132 67.877 0.027 3.626-0.713 5.076-4.604 4.694-4.597-0.451-10.805 1.448-13.474-0.9-3.104-2.731-0.874-9.062-0.956-13.82-0.167-9.646-0.05-19.298-0.05-28.947z m38.617 577.589c-16.495-0.258-32.998-0.185-49.496-0.036-3.178 0.029-4.2-0.72-4.197-4.081 0.094-93.329 0.094-186.659-0.001-279.988-0.003-3.379 1.048-4.097 4.208-4.069 16.665 0.146 33.333 0.185 49.996-0.02 3.811-0.047 4.985 0.814 4.972 4.85-0.157 46.497-0.1 92.996-0.1 139.494 0 46.165-0.078 92.33 0.122 138.494 0.021 4.549-1.246 5.422-5.504 5.356z m109.004 0.001c-16.495-0.26-32.998-0.185-49.496-0.037-3.171 0.028-4.205-0.708-4.201-4.076 0.094-93.329 0.094-186.659 0-279.988-0.003-3.371 1.036-4.102 4.203-4.074 16.665 0.147 33.335 0.258 49.995-0.057 4.512-0.085 4.969 1.54 4.959 5.382-0.125 46.332-0.081 92.664-0.081 138.995 0 46.165-0.078 92.33 0.122 138.494 0.019 4.54-1.233 5.428-5.501 5.361z m114.462-4.364c0.004 3.592-1.035 4.376-4.458 4.339-16.497-0.179-33-0.224-49.495 0.022-4.074 0.061-5.252-0.846-5.237-5.106 0.17-46.331 0.107-92.662 0.107-138.993 0-46.331 0.064-92.663-0.106-138.994-0.016-4.252 1.15-5.173 5.231-5.111 16.496 0.247 32.998 0.2 49.495 0.023 3.415-0.037 4.467 0.735 4.463 4.334-0.105 93.16-0.105 186.323 0 279.486z m103.538 4.363c-16.495-0.26-32.998-0.185-49.496-0.036-3.172 0.028-4.204-0.71-4.2-4.077 0.094-93.329 0.094-186.659 0-279.988-0.003-3.373 1.038-4.101 4.204-4.073 16.665 0.146 33.335 0.258 49.995-0.057 4.513-0.085 4.968 1.542 4.958 5.383-0.126 46.332-0.082 92.663-0.082 138.995 0 46.165-0.078 92.33 0.122 138.493 0.019 4.542-1.236 5.427-5.501 5.36z m108.996 0c-16.495-0.258-32.998-0.185-49.496-0.036-3.177 0.029-4.2-0.719-4.197-4.08 0.094-93.329 0.094-186.659-0.001-279.988-0.003-3.378 1.047-4.097 4.208-4.069 16.665 0.146 33.333 0.184 49.996-0.02 3.811-0.047 4.986 0.813 4.972 4.849-0.157 46.497-0.1 92.996-0.1 139.494 0 46.165-0.078 92.33 0.122 138.494 0.021 4.548-1.245 5.422-5.504 5.356zM816 655.125c0 46.331-0.044 92.663 0.082 138.994 0.01 3.785-0.77 5.05-4.835 4.988-16.662-0.255-33.332-0.22-49.995-0.017-3.608 0.044-4.33-1.065-4.327-4.471 0.093-92.996 0.096-185.992-0.007-278.988-0.004-3.622 0.716-4.789 4.583-4.733 16.663 0.239 33.332 0.239 49.995 0 3.867-0.056 4.595 1.11 4.585 4.733-0.124 46.498-0.081 92.996-0.081 139.494z m5.18-194.036c-102.644-0.114-205.288-0.089-307.933-0.089H206.314c-6.168 0-6.272-0.019-5.284-5.777 7.765-45.256 15.611-90.498 23.291-135.768 0.592-3.491 1.824-4.482 5.391-4.466 122.466 0.543 244.932 0.962 367.398 1.404 65.981 0.238 131.962 0.546 197.944 0.618 5.373 0.006 7.487 1.136 8.441 6.977 7.187 44.002 14.794 87.937 22.498 131.853 0.836 4.767-0.609 5.252-4.813 5.248z m58.729 337.96c-4.443-0.333-10.296 1.357-12.994-0.887-2.847-2.369-0.861-8.424-0.874-12.858-0.081-27.475-0.041-54.951-0.041-82.426v-5.25l0.912-0.104c1.672 9.581 3.373 19.158 5.011 28.745 3.893 22.78 7.661 45.581 11.727 68.33 0.662 3.705-0.134 4.72-3.741 4.45zM911 569.456v82.934l-0.945-0.124c-2.629-15.199-5.296-30.391-7.878-45.598-5.179-30.498-10.205-61.022-15.588-91.484-0.716-4.054 0.483-4.37 3.783-4.241 5.322 0.208 10.672 0.285 15.984-0.024 3.625-0.211 4.797 0.684 4.747 4.569-0.233 17.988-0.103 35.979-0.103 53.968z"
          fill="#8a8a8a">

    </path>
</svg>