<svg class="icon" viewBox="0 0 1024 1024" version="1.1" xmlns="http://www.w3.org/2000/svg"
     width="24" height="24">
    <path transform="translate(0,100)" d="M956.827 501.413c-4.09-5.995-10.168-7.181-16.757-6.486-4.565 0.481-5.701-1.055-5.689-5.613 0.163-61.373 0.117-122.747 0.102-184.121-0.003-10.836-5.799-16.897-16.462-16.848-3.14 0.014-4.612-1.025-5.974-3.79a122.251 122.251 0 0 0-21.028-30.183c-37.002-39.047-93.59-51.476-145.754-31.93-3.284 1.231-4.919 1.253-6.863-2.259-19.892-35.928-47.767-64.343-83.394-84.626-71.432-40.667-147.185-47.236-225.292-24.335-61.61 18.064-109.775 54.539-141.222 111.346-1.865 3.37-3.478 2.316-5.877 1.365-34.625-13.736-69.436-14.55-104.116-0.558-29.879 12.056-52.031 32.899-67.363 61.104-0.865 1.591-1.082 3.844-3.919 3.821-10.121-0.083-15.906 7.231-15.858 17.962 0.269 60.375 0.13 120.751 0.13 181.127 0 7.463 0 7.463-7.645 7.47-11.434 0.01-17.347 5.764-17.348 17.011-0.01 132.726-0.01 265.452 0 398.179 0.001 11.062 5.9 16.975 16.91 16.978 46.327 0.014 92.653 0.015 138.98-0.001 11.332-0.004 17.092-5.841 17.098-17.291 0.016-26.279 0.005-52.559 0.005-78.838 0-6.667 0-6.668 6.45-6.668h268.961c90.154 0 180.307 0.029 270.461-0.094 4.065-0.006 5.27 0.835 5.237 5.089-0.213 27.608-0.134 55.219-0.095 82.829 0.012 8.574 6.197 14.95 14.626 14.958 46.16 0.045 92.32 0.048 138.48 0 9.707-0.01 15.859-6.229 15.861-16.003 0.025-133.392 0.013-266.784 0.039-400.177 0.001-3.437-0.746-6.577-2.684-9.418zM143.49 413.842c0-25.117 0.026-50.234-0.036-75.352-0.007-2.893 0.501-5.513 1.738-8.15 3.453-7.365 6.272-15.054 10.104-22.209 20.906-39.037 66.272-55.275 107.426-38.342 14.447 5.944 28.581 12.658 42.762 19.225 2.911 1.348 4.196 0.992 5.647-1.907 5.28-10.546 11.051-20.848 16.253-31.431 23.639-48.092 61.878-79.449 112.47-95.315 64.753-20.308 127.92-15.97 187.905 17.097 30.485 16.805 53.771 41.098 69.828 72.115 5.881 11.36 12.111 22.545 17.797 34 1.888 3.803 3.696 3.969 7.23 2.427 12.951-5.652 25.945-11.223 39.077-16.437 36.773-14.599 77.565-3.527 99.333 26.781 8.845 12.315 13.103 26.796 19.026 40.485 0.556 1.286 0.33 2.947 0.323 4.434-0.235 49.398-0.519 98.797-0.666 148.195-0.01 3.337-0.656 4.735-4.327 4.522-5.481-0.318-11.003-0.263-16.491-0.011-3.034 0.139-4.29-0.913-5.176-3.794-9.106-29.604-25.137-54.977-48.223-75.587-37.012-33.043-80.587-48.84-130.032-43.454-74.125 8.074-123.236 48.776-148.103 118.762-1.09 3.068-2.169 4.666-5.802 4.457-5.475-0.316-11.01-0.225-16.479 0.208-3.967 0.314-5.36-1.346-6.518-4.874-16.01-48.802-47.378-84.273-94.339-105.114-92.787-41.179-201.292 8.117-231.712 104.865-1.305 4.151-2.942 5.9-7.515 5.508-5.79-0.497-11.666-0.326-17.485-0.042-3.4 0.166-4.098-1.055-4.083-4.213 0.12-25.617 0.068-51.233 0.068-76.849z m657.89 79.706H579.734c10.097-37.627 61.17-72.471 106.92-73.556 60.104-1.426 101.477 38.652 114.726 73.556z m-359.393 0.402c-35.499-0.159-70.999-0.088-106.499-0.088s-71-0.072-106.499 0.088c-4.619 0.021-4.835-1.054-2.894-4.789 23.068-44.392 59.503-68.882 109.647-68.789 49.926 0.092 86.195 24.576 109.145 68.792 1.947 3.751 1.703 4.807-2.9 4.786z m467.617 377.679c0.006 4.658-1.298 5.661-5.737 5.605-19.496-0.244-38.998-0.204-58.495-0.02-3.789 0.036-5.015-0.777-4.986-4.828 0.199-27.279 0.11-54.559 0.101-81.839-0.004-10.422-5.865-16.219-16.396-16.219-205.991-0.003-411.983-0.003-617.974-0.001-10.875 0-16.621 5.701-16.624 16.494-0.006 27.114-0.06 54.228 0.067 81.341 0.017 3.593-0.48 5.133-4.726 5.083-21.329-0.252-42.664-0.197-63.995-0.034-3.462 0.026-4.433-0.809-4.43-4.358 0.1-107.956 0.123-215.911-0.049-323.867-0.008-5.021 2.577-4.229 5.535-4.229 130.328 0.01 260.656 0.009 390.984 0.009s260.656 0.022 390.984-0.096c4.414-0.004 5.751 0.914 5.744 5.589-0.151 107.122-0.151 214.246-0.003 321.37z"
          fill="#8a8a8a">

    </path>
</svg>