<svg class="icon" viewBox="0 0 1024 1024" version="1.1" xmlns="http://www.w3.org/2000/svg"
     width="24" height="24">
    <g transform="scale(0.8,0.8) translate(0,260)" >
        <path d="M209.454545 69.818182l0 279.272727L325.818182 465.454545c0 0-11.636364 132.701091-11.636364 256 0 123.298909 11.636364 302.545455 11.636364 302.545455l46.545455 0c0 0 11.636364-180.177455 11.636364-302.545455 0-122.368-11.636364-256-11.636364-256L488.727273 349.090909l0-279.272727L442.181818 0l0 326.376727L372.363636 392.890182 372.363636 0l-46.545455 0 0 392.890182L256.093091 326.376727 256.093091 0 209.454545 69.818182z" fill="#8a8a8a">
        </path>
        <path d="M814.545455 345.088C814.545455 298.682182 791.272727 0 674.909091 0 558.545455 0 535.272727 298.682182 535.272727 345.088c0 92.858182 116.363636 121.856 116.363636 121.856s-11.636364 139.264-11.636364 255.301818C640 838.330182 651.636364 1024 651.636364 1024l46.545455 0c0 0 11.636364-180.503273 11.636364-301.754182 0-121.204364-11.636364-255.301818-11.636364-255.301818S814.545455 437.946182 814.545455 345.088z" fill="#8a8a8a">
        </path>
    </g>
</svg>