<svg class="icon" viewBox="0 0 1024 1024" version="1.1" xmlns="http://www.w3.org/2000/svg"
     width="16" height="16" xmlns:xlink="http://www.w3.org/1999/xlink">
    <defs>
        <style type="text/css"/>
    </defs>
    <path d="M64.67 512c2.03-148.27 27.78-271.04 103.07-344.26C240.96 92.45 363.73 66.7 512 64.67c148.27 2.03 271.04 27.78 344.26 103.07C931.55 240.96 957.3 363.73 959.33 512c-2.03 148.27-27.78 271.04-103.07 344.26C783.04 931.55 660.27 957.3 512 959.33c-148.27-2.03-271.04-27.78-344.26-103.07C92.45 783.04 66.7 660.27 64.67 512z"/>
    <path d="M493.37 338.05l147.6 147.6-321.56 0.01c-14.56 0-26.36 11.8-26.36 26.36 0 14.56 11.79 26.36 26.36 26.36l321.56-0.01-147.61 147.59c-10.29 10.29-10.29 26.98 0 37.28 10.29 10.29 26.98 10.29 37.28 0l192.6-192.6c1.22-1.22 2.32-2.58 3.28-4.02 0.43-0.65 0.73-1.35 1.1-2.03 0.46-0.83 0.96-1.63 1.32-2.51 0.37-0.88 0.58-1.81 0.84-2.72 0.21-0.73 0.5-1.44 0.65-2.19 0.68-3.41 0.68-6.93 0-10.34-0.14-0.71-0.41-1.37-0.61-2.07-0.27-0.95-0.5-1.92-0.88-2.85-0.35-0.85-0.84-1.61-1.27-2.41-0.38-0.71-0.7-1.44-1.15-2.12-0.97-1.44-2.06-2.79-3.28-4.02l-192.6-192.59c-10.29-10.29-26.98-10.29-37.28 0-10.29 10.29-10.29 26.98 0.01 37.28z"
          fill="#FFFFFF"/>
</svg>