<?xml version="1.0" encoding="utf-8"?>
<!-- Generator: Adobe Illustrator 23.0.1, SVG Export Plug-In . SVG Version: 6.00 Build 0)  -->
<svg version="1.1" id="图层_1" xmlns="http://www.w3.org/2000/svg" xmlns:xlink="http://www.w3.org/1999/xlink" x="0px"
     y="0px"
     width="128" height="128"
     viewBox="0 0 640 480" style="enable-background:new 0 0 640 480;" xml:space="preserve">
<style type="text/css">
	.st0{fill:#FFFFFF;}
</style>
    <g transform="translate(-160,-200)">
<!--	<path class="st0" d="M171.47,184.5c-4.4,0-7.97-3.58-7.97-7.97v-14.05c0-4.4,3.58-7.97,7.97-7.97h329.05c4.4,0,7.97,3.58,7.97,7.97-->
        <!--		v14.05c0,4.4-3.58,7.97-7.97,7.97H171.47z"/>-->
        <path d="M500.53,156c3.57,0,6.47,2.9,6.47,6.47v14.05c0,3.57-2.9,6.47-6.47,6.47H171.47c-3.57,0-6.47-2.9-6.47-6.47v-14.05
		c0-3.57,2.9-6.47,6.47-6.47H500.53 M500.53,153H171.47c-5.23,0-9.47,4.24-9.47,9.47v14.05c0,5.23,4.24,9.47,9.47,9.47h329.05
		c5.23,0,9.47-4.24,9.47-9.47v-14.05C510,157.24,505.76,153,500.53,153L500.53,153z"/>

        <circle class="st0" cx="496.5" cy="169.5" r="15.5"/>
        <path d="M496.5,156c7.44,0,13.5,6.06,13.5,13.5s-6.06,13.5-13.5,13.5s-13.5-6.06-13.5-13.5S489.06,156,496.5,156 M496.5,152
		c-9.66,0-17.5,7.84-17.5,17.5s7.84,17.5,17.5,17.5s17.5-7.84,17.5-17.5S506.16,152,496.5,152L496.5,152z"/>

        <rect x="505.5" y="182.5" transform="matrix(0.8661 -0.4999 0.4999 0.8661 -27.65 278.7896)" class="st0" width="2"
              height="17"/>
        <polygon points="503.67,181.09 499.33,183.59 509.33,200.91 513.67,198.41 503.67,181.09 	"/>
	</g>
</svg>
