<?xml version="1.0" encoding="utf-8"?>
<svg width="549px" height="560px" viewBox="0 0 549 560" version="1.1" xmlns:xlink="http://www.w3.org/1999/xlink" xmlns="http://www.w3.org/2000/svg">
  <desc>Created with Lunacy</desc>
  <g id="svgjsG1000" transform="matrix(-9.759224E-08 2.000002 -2.000002 -9.759224E-08 564.0006 8.000046) scale(0.7,0.7) translate(0,-87)">
    <path d="M0 0L271.806 0L271.806 278L0 278L0 0Z" id="svgjsRect2885" fill="none" stroke="none" />
    <path d="M200.599 103.98L188.176 103.98L175.294 103.98L162.181 103.98L149.069 103.98L135.956 103.98L122.844 103.98L109.731 103.98L96.6187 103.98L83.5061 103.98L70.3936 103.98L57.2811 103.98L44.1685 103.98L31.056 103.98L17.9435 103.98L8.74169 97.0788L0 91.0976L0 80.0555L0 69.0134L0 61.6519L17.2533 51.9901L31.9762 43.0183L31.9762 38.4174L31.9762 29.6757L31.9762 24.6148L22.7744 13.8027L22.7744 0" transform="translate(42.71746 10.33411)" id="svgjsPath2886" fill="none" stroke="#EF0E41" stroke-width="8" />
    <path d="M112.17 44.1685L99.9773 44.1685L87.67 44.1685L77.9851 44.1685L77.9851 33.1264L77.9851 23.9246L77.9851 12.8825L77.9851 0L63.9984 0L52.0591 0L42.2822 0L31.4931 0L20.704 0L14.2628 6.51026L8.05156 12.8825L8.05156 24.3847L8.05156 36.117L8.05156 47.8493L8.05156 60.0416L8.05156 72.0039L8.05156 84.1963L8.05156 88.7972L8.05156 96.1586L8.05156 107.891L8.05156 121.003L8.05156 135.036L8.05156 141.707L8.05156 149.529L0 161.721" transform="translate(22.01349 101.4319)" id="svgjsPath2889" fill="none" stroke="#FFC933" stroke-width="8" />
    <path d="M0 1.15022C0 0.514972 0.514976 0 1.15023 0C1.78549 0 2.30046 0.514972 2.30046 1.15022C2.30046 1.78547 1.78549 2.30045 1.15023 2.30045C0.514976 2.30045 0 1.78547 0 1.15022Z" transform="translate(242.1662 113.1641)" id="svgjsEllipse2892" fill="#FFFFFF" stroke="#EF0E41" stroke-width="2.5" />
    <path d="M0 1.15022C0 0.514972 0.514962 0 1.1502 0C1.78544 0 2.3004 0.514972 2.3004 1.15022C2.3004 1.78547 1.78544 2.30045 1.1502 2.30045C0.514962 2.30045 0 1.78547 0 1.15022Z" transform="translate(229.7436 113.1641)" id="svgjsEllipse2895" fill="#FFFFFF" stroke="#EF0E41" stroke-width="2.5" />
    <path d="M0 1.15022C0 0.514972 0.514969 0 1.15022 0C1.78546 0 2.30043 0.514972 2.30043 1.15022C2.30043 1.78547 1.78546 2.30045 1.15022 2.30045C0.514969 2.30045 0 1.78547 0 1.15022Z" transform="translate(216.8585 113.1641)" id="svgjsEllipse2898" fill="#FFFFFF" stroke="#EF0E41" stroke-width="2.5" />
    <path d="M0 1.15022C0 0.514972 0.514965 0 1.15021 0C1.78545 0 2.30042 0.514972 2.30042 1.15022C2.30042 1.78547 1.78545 2.30045 1.15021 2.30045C0.514965 2.30045 0 1.78547 0 1.15022Z" transform="translate(203.7486 113.1641)" id="svgjsEllipse2901" fill="#FFFFFF" stroke="#EF0E41" stroke-width="2.5" />
    <path d="M0 1.15022C0 0.514972 0.514965 0 1.15021 0C1.78545 0 2.30042 0.514972 2.30042 1.15022C2.30042 1.78547 1.78545 2.30045 1.15021 2.30045C0.514965 2.30045 0 1.78547 0 1.15022Z" transform="translate(190.6362 113.1641)" id="svgjsEllipse2904" fill="#FFFFFF" stroke="#EF0E41" stroke-width="2.5" />
    <path d="M0 1.15022C0 0.514972 0.514976 0 1.15023 0C1.78549 0 2.30046 0.514972 2.30046 1.15022C2.30046 1.78547 1.78549 2.30045 1.15023 2.30045C0.514976 2.30045 0 1.78547 0 1.15022Z" transform="translate(177.5237 113.1641)" id="svgjsEllipse2907" fill="#FFFFFF" stroke="#EF0E41" stroke-width="2.5" />
    <path d="M0 1.15022C0 0.514972 0.514972 0 1.15022 0C1.78547 0 2.30045 0.514972 2.30045 1.15022C2.30045 1.78547 1.78547 2.30045 1.15022 2.30045C0.514972 2.30045 0 1.78547 0 1.15022Z" transform="translate(164.411 113.1641)" id="svgjsEllipse2910" fill="#FFFFFF" stroke="#EF0E41" stroke-width="2.5" />
    <path d="M0 1.15022C0 0.514972 0.514965 0 1.15021 0C1.78545 0 2.30042 0.514972 2.30042 1.15022C2.30042 1.78547 1.78545 2.30045 1.15021 2.30045C0.514965 2.30045 0 1.78547 0 1.15022Z" transform="translate(151.2982 113.1641)" id="svgjsEllipse2913" fill="#FFFFFF" stroke="#EF0E41" stroke-width="2.5" />
    <path d="M0 1.15022C0 0.514972 0.514962 0 1.1502 0C1.78544 0 2.3004 0.514972 2.3004 1.15022C2.3004 1.78547 1.78544 2.30045 1.1502 2.30045C0.514962 2.30045 0 1.78547 0 1.15022Z" transform="translate(138.1859 113.1641)" id="svgjsEllipse2916" fill="#FFFFFF" stroke="#EF0E41" stroke-width="2.5" />
    <path d="M0 1.15022C0 0.514972 0.514972 0 1.15022 0C1.78547 0 2.30045 0.514972 2.30045 1.15022C2.30045 1.78547 1.78547 2.30045 1.15022 2.30045C0.514972 2.30045 0 1.78547 0 1.15022Z" transform="translate(125.0734 113.1641)" id="svgjsEllipse2919" fill="#FFFFFF" stroke="#EF0E41" stroke-width="2.5" />
    <path d="M0 1.15022C0 0.514972 0.514974 0 1.15023 0C1.78548 0 2.30045 0.514972 2.30045 1.15022C2.30045 1.78547 1.78548 2.30045 1.15023 2.30045C0.514974 2.30045 0 1.78547 0 1.15022Z" transform="translate(111.9609 113.1641)" id="svgjsEllipse2922" fill="#FFFFFF" stroke="#EF0E41" stroke-width="2.5" />
    <path d="M0 1.15022C0 0.514972 0.514964 0 1.1502 0C1.78544 0 2.30041 0.514972 2.30041 1.15022C2.30041 1.78547 1.78544 2.30045 1.1502 2.30045C0.514964 2.30045 0 1.78547 0 1.15022Z" transform="translate(85.73569 113.1641)" id="svgjsEllipse2928" fill="#FFFFFF" stroke="#EF0E41" stroke-width="2.5" />
    <path d="M0 1.15022C0 0.514972 0.514976 0 1.15023 0C1.78549 0 2.30046 0.514972 2.30046 1.15022C2.30046 1.78547 1.78549 2.30045 1.15023 2.30045C0.514976 2.30045 0 1.78547 0 1.15022Z" transform="translate(72.62337 113.1641)" id="svgjsEllipse2931" fill="#FFFFFF" stroke="#EF0E41" stroke-width="2.5" />
    <path d="M0 1.15022C0 0.514971 0.514964 0 1.1502 0C1.78544 0 2.30041 0.514971 2.30041 1.15022C2.30041 1.78547 1.78544 2.30044 1.1502 2.30044C0.514964 2.30044 0 1.78547 0 1.15022Z" transform="translate(59.51072 113.1638)" id="svgjsEllipse2934" fill="#FFFFFF" stroke="#EF0E41" stroke-width="2.5" />
    <path d="M0 1.15021C0 0.514967 0.514968 0 1.15021 0C1.78546 0 2.30043 0.514967 2.30043 1.15021C2.30043 1.78546 1.78546 2.30042 1.15021 2.30042C0.514968 2.30042 0 1.78546 0 1.15021Z" transform="translate(50.30898 106.2629)" id="svgjsEllipse2937" fill="#FFFFFF" stroke="#EF0E41" stroke-width="2.5" />
    <path d="M0 1.15023C0 0.514974 0.514967 0 1.15021 0C1.78546 0 2.30042 0.514974 2.30042 1.15023C2.30042 1.78548 1.78546 2.30045 1.15021 2.30045C0.514967 2.30045 0 1.78548 0 1.15023Z" transform="translate(41.56727 89.24224)" id="svgjsEllipse2943" fill="#FFFFFF" stroke="#EF0E41" stroke-width="2.5" />
    <path d="M0 1.1502C0 0.514964 0.514967 0 1.15021 0C1.78546 0 2.30042 0.514964 2.30042 1.1502C2.30042 1.78544 1.78546 2.30041 1.15021 2.30041C0.514967 2.30041 0 1.78544 0 1.1502Z" transform="translate(41.56727 78.19723)" id="svgjsEllipse2946" fill="#FFFFFF" stroke="#EF0E41" stroke-width="2.5" />
    <path d="M0 1.15024C0 0.514978 0.514973 0 1.15022 0C1.78548 0 2.30045 0.514978 2.30045 1.15024C2.30045 1.78549 1.78548 2.30047 1.15022 2.30047C0.514973 2.30047 0 1.78549 0 1.15024Z" transform="translate(58.82051 61.17418)" id="svgjsEllipse2949" fill="#FFFFFF" stroke="#EF0E41" stroke-width="2.5" />
    <path d="M0 1.15022C0 0.51497 0.514971 0 1.15022 0C1.78547 0 2.30044 0.51497 2.30044 1.15022C2.30044 1.78546 1.78547 2.30043 1.15022 2.30043C0.514971 2.30043 0 1.78546 0 1.15022Z" transform="translate(73.54348 47.60154)" id="svgjsEllipse2952" fill="#FFFFFF" stroke="#EF0E41" stroke-width="2.5" />
    <path d="M0 1.15022C0 0.51497 0.514974 0 1.15023 0C1.78548 0 2.30045 0.51497 2.30045 1.15022C2.30045 1.78546 1.78548 2.30043 1.15023 2.30043C0.514974 2.30043 0 1.78546 0 1.15022Z" transform="translate(73.54346 38.85963)" id="svgjsEllipse2955" fill="#FFFFFF" stroke="#EF0E41" stroke-width="2.5" />
    <path d="M0 1.15022C0 0.514972 0.514964 0 1.1502 0C1.78544 0 2.30041 0.514972 2.30041 1.15022C2.30041 1.78547 1.78544 2.30045 1.1502 2.30045C0.514964 2.30045 0 1.78547 0 1.15022Z" transform="translate(64.34162 22.98941)" id="svgjsEllipse2958" fill="#FFFFFF" stroke="#EF0E41" stroke-width="2.5" />
    <path d="M0 1.15023C0 0.514976 0.514964 0 1.1502 0C1.78544 0 2.30041 0.514976 2.30041 1.15023C2.30041 1.78549 1.78544 2.30046 1.1502 2.30046C0.514964 2.30046 0 1.78549 0 1.15023Z" transform="translate(64.34162 9.183884)" id="svgjsEllipse2961" fill="#FFFFFF" stroke="#EF0E41" stroke-width="2.5" />
    <path d="M0 1.15024C0 0.514979 0.514965 0 1.15021 0C1.78545 0 2.30042 0.514979 2.30042 1.15024C2.30042 1.7855 1.78545 2.30048 1.15021 2.30048C0.514965 2.30048 0 1.7855 0 1.15024Z" transform="translate(133.033 144.45)" id="svgjsEllipse2964" fill="#FFFFFF" stroke="#FFC933" stroke-width="2.5" />
    <path d="M0 1.15024C0 0.514979 0.514967 0 1.15021 0C1.78546 0 2.30042 0.514979 2.30042 1.15024C2.30042 1.7855 1.78546 2.30048 1.15021 2.30048C0.514967 2.30048 0 1.7855 0 1.15024Z" transform="translate(120.8404 144.45)" id="svgjsEllipse2967" fill="#FFFFFF" stroke="#FFC933" stroke-width="2.5" />
    <path d="M0 1.15024C0 0.514979 0.514965 0 1.15021 0C1.78545 0 2.30042 0.514979 2.30042 1.15024C2.30042 1.7855 1.78545 2.30048 1.15021 2.30048C0.514965 2.30048 0 1.7855 0 1.15024Z" transform="translate(108.5332 144.45)" id="svgjsEllipse2970" fill="#FFFFFF" stroke="#FFC933" stroke-width="2.5" />
    <path d="M0 1.15022C0 0.514972 0.514971 0 1.15022 0C1.78547 0 2.30044 0.514972 2.30044 1.15022C2.30044 1.78547 1.78547 2.30045 1.15022 2.30045C0.514971 2.30045 0 1.78547 0 1.15022Z" transform="translate(98.84832 133.4081)" id="svgjsEllipse2973" fill="#FFFFFF" stroke="#FFC933" stroke-width="2.5" />
    <path d="M0 1.1502C0 0.514964 0.514971 0 1.15022 0C1.78547 0 2.30044 0.514964 2.30044 1.1502C2.30044 1.78544 1.78547 2.30041 1.15022 2.30041C0.514971 2.30041 0 1.78544 0 1.1502Z" transform="translate(98.84832 124.2092)" id="svgjsEllipse2976" fill="#FFFFFF" stroke="#FFC933" stroke-width="2.5" />
    <path d="M0 1.15023C0 0.514974 0.514971 0 1.15022 0C1.78547 0 2.30044 0.514974 2.30044 1.15023C2.30044 1.78548 1.78547 2.30045 1.15022 2.30045C0.514971 2.30045 0 1.78548 0 1.15023Z" transform="translate(98.84832 100.2816)" id="svgjsEllipse2979" fill="#FFFFFF" stroke="#FFC933" stroke-width="2.5" />
    <path d="M0 1.15023C0 0.514974 0.51496 0 1.1502 0C1.78543 0 2.30039 0.514974 2.30039 1.15023C2.30039 1.78548 1.78543 2.30045 1.1502 2.30045C0.51496 2.30045 0 1.78548 0 1.15023Z" transform="translate(84.86164 100.2816)" id="svgjsEllipse2982" fill="#FFFFFF" stroke="#FFC933" stroke-width="2.5" />
    <path d="M0 1.15023C0 0.514974 0.514971 0 1.15022 0C1.78547 0 2.30044 0.514974 2.30044 1.15023C2.30044 1.78548 1.78547 2.30045 1.15022 2.30045C0.514971 2.30045 0 1.78548 0 1.15023Z" transform="translate(72.92236 100.2816)" id="svgjsEllipse2985" fill="#FFFFFF" stroke="#FFC933" stroke-width="2.5" />
    <path d="M0 1.15023C0 0.514974 0.514977 0 1.15023 0C1.78549 0 2.30047 0.514974 2.30047 1.15023C2.30047 1.78548 1.78549 2.30045 1.15023 2.30045C0.514977 2.30045 0 1.78548 0 1.15023Z" transform="translate(63.14539 100.2816)" id="svgjsEllipse2988" fill="#FFFFFF" stroke="#FFC933" stroke-width="2.5" />
    <path d="M0 1.15023C0 0.514974 0.514965 0 1.15021 0C1.78545 0 2.30041 0.514974 2.30041 1.15023C2.30041 1.78548 1.78545 2.30045 1.15021 2.30045C0.514965 2.30045 0 1.78548 0 1.15023Z" transform="translate(52.35631 100.2816)" id="svgjsEllipse2991" fill="#FFFFFF" stroke="#FFC933" stroke-width="2.5" />
    <path d="M0 1.15023C0 0.514977 0.514971 0 1.15022 0C1.78547 0 2.30044 0.514977 2.30044 1.15023C2.30044 1.78549 1.78547 2.30047 1.15022 2.30047C0.514971 2.30047 0 1.78549 0 1.15023Z" transform="translate(35.12597 106.792)" id="svgjsEllipse2994" fill="#FFFFFF" stroke="#FFC933" stroke-width="2.5" />
    <path d="M0 1.15022C0 0.514971 0.514966 0 1.15021 0C1.78545 0 2.30042 0.514971 2.30042 1.15022C2.30042 1.78547 1.78545 2.30044 1.15021 2.30044C0.514966 2.30044 0 1.78547 0 1.15022Z" transform="translate(28.91482 113.1638)" id="svgjsEllipse2997" fill="#FFFFFF" stroke="#FFC933" stroke-width="2.5" />
    <path d="M0 1.15023C0 0.514974 0.514969 0 1.15022 0C1.78546 0 2.30043 0.514974 2.30043 1.15023C2.30043 1.78548 1.78546 2.30045 1.15022 2.30045C0.514969 2.30045 0 1.78548 0 1.15023Z" transform="translate(28.91545 124.6691)" id="svgjsEllipse3000" fill="#FFFFFF" stroke="#FFC933" stroke-width="2.5" />
    <path d="M0 1.15022C0 0.514969 0.514968 0 1.15021 0C1.78546 0 2.30043 0.514969 2.30043 1.15022C2.30043 1.78546 1.78546 2.30043 1.15021 2.30043C0.514968 2.30043 0 1.78546 0 1.15022Z" transform="translate(28.91545 136.3987)" id="svgjsEllipse3003" fill="#FFFFFF" stroke="#FFC933" stroke-width="2.5" />
    <path d="M0 1.15021C0 0.514965 0.514966 0 1.15021 0C1.78545 0 2.30042 0.514965 2.30042 1.15021C2.30042 1.78545 1.78545 2.30042 1.15021 2.30042C0.514966 2.30042 0 1.78545 0 1.15021Z" transform="translate(28.91482 148.1306)" id="svgjsEllipse3006" fill="#FFFFFF" stroke="#FFC933" stroke-width="2.5" />
    <path d="M0 1.15024C0 0.514979 0.514964 0 1.1502 0C1.78545 0 2.30041 0.514979 2.30041 1.15024C2.30041 1.7855 1.78545 2.30048 1.1502 2.30048C0.514964 2.30048 0 1.7855 0 1.15024Z" transform="translate(28.91483 160.3233)" id="svgjsEllipse3009" fill="#FFFFFF" stroke="#FFC933" stroke-width="2.5" />
    <path d="M0 1.15022C0 0.514972 0.514964 0 1.1502 0C1.78545 0 2.30041 0.514972 2.30041 1.15022C2.30041 1.78547 1.78545 2.30045 1.1502 2.30045C0.514964 2.30045 0 1.78547 0 1.15022Z" transform="translate(28.91483 172.2855)" id="svgjsEllipse3012" fill="#FFFFFF" stroke="#FFC933" stroke-width="2.5" />
    <path d="M0 1.15021C0 0.514965 0.514964 0 1.1502 0C1.78545 0 2.30041 0.514965 2.30041 1.15021C2.30041 1.78545 1.78545 2.30042 1.1502 2.30042C0.514964 2.30042 0 1.78545 0 1.15021Z" transform="translate(28.91483 184.4778)" id="svgjsEllipse3015" fill="#FFFFFF" stroke="#FFC933" stroke-width="2.5" />
    <path d="M0 1.15022C0 0.514969 0.514966 0 1.15021 0C1.78545 0 2.30042 0.514969 2.30042 1.15022C2.30042 1.78546 1.78545 2.30043 1.15021 2.30043C0.514966 2.30043 0 1.78546 0 1.15022Z" transform="translate(28.91482 189.0787)" id="svgjsEllipse3018" fill="#FFFFFF" stroke="#FFC933" stroke-width="2.5" />
    <path d="M0 1.15023C0 0.514976 0.514966 0 1.15021 0C1.78545 0 2.30042 0.514976 2.30042 1.15023C2.30042 1.78549 1.78545 2.30046 1.15021 2.30046C0.514966 2.30046 0 1.78549 0 1.15023Z" transform="translate(28.91482 196.4403)" id="svgjsEllipse3021" fill="#FFFFFF" stroke="#FFC933" stroke-width="2.5" />
    <path d="M0 1.15022C0 0.514972 0.514966 0 1.15021 0C1.78545 0 2.30042 0.514972 2.30042 1.15022C2.30042 1.78547 1.78545 2.30045 1.15021 2.30045C0.514966 2.30045 0 1.78547 0 1.15022Z" transform="translate(28.91482 208.1726)" id="svgjsEllipse3024" fill="#FFFFFF" stroke="#FFC933" stroke-width="2.5" />
    <path d="M0 1.15022C0 0.514972 0.514966 0 1.15021 0C1.78545 0 2.30042 0.514972 2.30042 1.15022C2.30042 1.78547 1.78545 2.30045 1.15021 2.30045C0.514966 2.30045 0 1.78547 0 1.15022Z" transform="translate(28.91482 221.2851)" id="svgjsEllipse3027" fill="#FFFFFF" stroke="#FFC933" stroke-width="2.5" />
    <path d="M0 1.15024C0 0.514979 0.514966 0 1.15021 0C1.78545 0 2.30042 0.514979 2.30042 1.15024C2.30042 1.7855 1.78545 2.30048 1.15021 2.30048C0.514966 2.30048 0 1.7855 0 1.15024Z" transform="translate(28.91482 235.3194)" id="svgjsEllipse3030" fill="#FFFFFF" stroke="#FFC933" stroke-width="2.5" />
    <path d="M0 1.15024C0 0.514979 0.514966 0 1.15021 0C1.78545 0 2.30042 0.514979 2.30042 1.15024C2.30042 1.7855 1.78545 2.30048 1.15021 2.30048C0.514966 2.30048 0 1.7855 0 1.15024Z" transform="translate(28.91482 241.9888)" id="svgjsEllipse3033" fill="#FFFFFF" stroke="#FFC933" stroke-width="2.5" />
    <path d="M0 1.15023C0 0.514976 0.514966 0 1.15021 0C1.78545 0 2.30042 0.514976 2.30042 1.15023C2.30042 1.78549 1.78545 2.30046 1.15021 2.30046C0.514966 2.30046 0 1.78549 0 1.15023Z" transform="translate(28.91482 249.8116)" id="svgjsEllipse3036" fill="#FFFFFF" stroke="#FFC933" stroke-width="2.5" />
    <path d="M0 1.15024C0 0.514979 0.514974 0 1.15023 0C1.78548 0 2.30045 0.514979 2.30045 1.15024C2.30045 1.7855 1.78548 2.30048 1.15023 2.30048C0.514974 2.30048 0 1.7855 0 1.15024Z" transform="translate(20.86325 262.0028)" id="svgjsEllipse3039" fill="#FFFFFF" stroke="#FFC933" stroke-width="2.5" />
  </g>
</svg>