<?xml version="1.0" encoding="utf-8"?>
<svg width="727px" height="1007px" viewBox="0 0 727 1007" version="1.1" xmlns:xlink="http://www.w3.org/1999/xlink" xmlns="http://www.w3.org/2000/svg">
  <desc>Created with Lunacy</desc>
  <g id="subway" transform="matrix(-2.234834E-08 -1 1 -2.234834E-08 -381.8833 1084.268) translate(0,0)">
    <g id="svgjsG1000" transform="scale(2 2)">
      <path d="M0 0L540.134 0L540.134 552.442L0 552.442L0 0Z" id="svgjsRect2885" fill="none" stroke="none" />
      <path d="M398.63 206.629L373.944 206.629L348.344 206.629L322.287 206.629L296.23 206.629L270.172 206.629L244.115 206.629L218.058 206.629L192.001 206.629L165.943 206.629L139.886 206.629L113.829 206.629L87.7718 206.629L61.7145 206.629L35.6573 206.629L17.3715 192.915L0 181.029L0 159.086L0 137.143L0 122.515L34.2858 103.315L63.5431 85.4861L63.5431 76.3432L63.5431 58.9717L63.5431 48.9145L45.2573 27.4287L45.2573 0" transform="translate(84.88823 20.53634)" id="svgjsPath2886" fill="none" stroke="#EF0E41" stroke-width="8" />
      <path d="M222.904 87.7717L198.675 87.7717L174.218 87.7717L154.972 87.7717L154.972 65.8288L154.972 47.543L154.972 25.6001L154.972 0L127.178 0L103.452 0L84.0232 0L62.5831 0L41.143 0L28.343 12.9372L16.0001 25.6001L16.0001 48.4573L16.0001 71.7717L16.0001 95.086L16.0001 119.315L16.0001 143.086L16.0001 167.315L16.0001 176.458L16.0001 191.086L16.0001 214.401L16.0001 240.458L16.0001 268.344L16.0001 281.601L16.0001 297.144L0 321.372" transform="translate(43.74521 201.5655)" id="svgjsPath2889" fill="none" stroke="#FFC933" stroke-width="8" />
      <path d="M0 2.28571C0 1.02335 1.02335 0 2.28572 0C3.54809 0 4.57144 1.02335 4.57144 2.28571C4.57144 3.54808 3.54809 4.57143 2.28572 4.57143C1.02335 4.57143 0 3.54808 0 2.28571Z" transform="translate(481.2327 224.8797)" id="svgjsEllipse2892" fill="#FFFFFF" stroke="#EF0E41" stroke-width="2.5" />
      <path d="M0 2.28571C0 1.02335 1.02335 0 2.28571 0C3.54807 0 4.57141 1.02335 4.57141 2.28571C4.57141 3.54808 3.54807 4.57143 2.28571 4.57143C1.02335 4.57143 0 3.54808 0 2.28571Z" transform="translate(456.5466 224.8797)" id="svgjsEllipse2895" fill="#FFFFFF" stroke="#EF0E41" stroke-width="2.5" />
      <path d="M0 2.28571C0 1.02335 1.02335 0 2.28572 0C3.54809 0 4.57144 1.02335 4.57144 2.28571C4.57144 3.54808 3.54809 4.57143 2.28572 4.57143C1.02335 4.57143 0 3.54808 0 2.28571Z" transform="translate(430.9467 224.8797)" id="svgjsEllipse2898" fill="#FFFFFF" stroke="#EF0E41" stroke-width="2.5" />
      <path d="M0 2.28571C0 1.02335 1.02334 0 2.28569 0C3.54804 0 4.57138 1.02335 4.57138 2.28571C4.57138 3.54808 3.54804 4.57143 2.28569 4.57143C1.02334 4.57143 0 3.54808 0 2.28571Z" transform="translate(404.8893 224.8797)" id="svgjsEllipse2901" fill="#FFFFFF" stroke="#EF0E41" stroke-width="2.5" />
      <path d="M0 2.28571C0 1.02335 1.02335 0 2.28571 0C3.54807 0 4.57141 1.02335 4.57141 2.28571C4.57141 3.54808 3.54807 4.57143 2.28571 4.57143C1.02335 4.57143 0 3.54808 0 2.28571Z" transform="translate(378.8322 224.8797)" id="svgjsEllipse2904" fill="#FFFFFF" stroke="#EF0E41" stroke-width="2.5" />
      <path d="M0 2.28571C0 1.02335 1.02335 0 2.28572 0C3.54809 0 4.57144 1.02335 4.57144 2.28571C4.57144 3.54808 3.54809 4.57143 2.28572 4.57143C1.02335 4.57143 0 3.54808 0 2.28571Z" transform="translate(352.7751 224.8797)" id="svgjsEllipse2907" fill="#FFFFFF" stroke="#EF0E41" stroke-width="2.5" />
      <path d="M0 2.28571C0 1.02335 1.02335 0 2.28571 0C3.54807 0 4.57141 1.02335 4.57141 2.28571C4.57141 3.54808 3.54807 4.57143 2.28571 4.57143C1.02335 4.57143 0 3.54808 0 2.28571Z" transform="translate(326.7178 224.8797)" id="svgjsEllipse2910" fill="#FFFFFF" stroke="#EF0E41" stroke-width="2.5" />
      <path d="M0 2.28571C0 1.02335 1.02335 0 2.28571 0C3.54807 0 4.57141 1.02335 4.57141 2.28571C4.57141 3.54808 3.54807 4.57143 2.28571 4.57143C1.02335 4.57143 0 3.54808 0 2.28571Z" transform="translate(300.6605 224.8797)" id="svgjsEllipse2913" fill="#FFFFFF" stroke="#EF0E41" stroke-width="2.5" />
      <path d="M0 2.28571C0 1.02335 1.02334 0 2.28569 0C3.54804 0 4.57138 1.02335 4.57138 2.28571C4.57138 3.54808 3.54804 4.57143 2.28569 4.57143C1.02334 4.57143 0 3.54808 0 2.28571Z" transform="translate(274.6032 224.8797)" id="svgjsEllipse2916" fill="#FFFFFF" stroke="#EF0E41" stroke-width="2.5" />
      <path d="M0 2.28571C0 1.02335 1.02335 0 2.28571 0C3.54808 0 4.57143 1.02335 4.57143 2.28571C4.57143 3.54808 3.54808 4.57143 2.28571 4.57143C1.02335 4.57143 0 3.54808 0 2.28571Z" transform="translate(248.5459 224.8797)" id="svgjsEllipse2919" fill="#FFFFFF" stroke="#EF0E41" stroke-width="2.5" />
      <path d="M0 2.28571C0 1.02335 1.02335 0 2.28571 0C3.54808 0 4.57143 1.02335 4.57143 2.28571C4.57143 3.54808 3.54808 4.57143 2.28571 4.57143C1.02335 4.57143 0 3.54808 0 2.28571Z" transform="translate(222.4888 224.8797)" id="svgjsEllipse2922" fill="#FFFFFF" stroke="#EF0E41" stroke-width="2.5" />
      <path d="M0 2.28571C0 1.02335 1.02335 0 2.28571 0C3.54807 0 4.57141 1.02335 4.57141 2.28571C4.57141 3.54808 3.54807 4.57143 2.28571 4.57143C1.02335 4.57143 0 3.54808 0 2.28571Z" transform="translate(170.3742 224.8797)" id="svgjsEllipse2928" fill="#FFFFFF" stroke="#EF0E41" stroke-width="2.5" />
      <path d="M0 2.28571C0 1.02335 1.02335 0 2.28571 0C3.54808 0 4.57143 1.02335 4.57143 2.28571C4.57143 3.54808 3.54808 4.57143 2.28571 4.57143C1.02335 4.57143 0 3.54808 0 2.28571Z" transform="translate(144.3172 224.8797)" id="svgjsEllipse2931" fill="#FFFFFF" stroke="#EF0E41" stroke-width="2.5" />
      <path d="M0 2.28571C0 1.02335 1.02334 0 2.2857 0C3.54806 0 4.5714 1.02335 4.5714 2.28571C4.5714 3.54808 3.54806 4.57143 2.2857 4.57143C1.02334 4.57143 0 3.54808 0 2.28571Z" transform="translate(118.2597 224.8797)" id="svgjsEllipse2934" fill="#FFFFFF" stroke="#EF0E41" stroke-width="2.5" />
      <path d="M0 2.28573C0 1.02336 1.02334 0 2.2857 0C3.54806 0 4.5714 1.02336 4.5714 2.28573C4.5714 3.5481 3.54806 4.57146 2.2857 4.57146C1.02334 4.57146 0 3.5481 0 2.28573Z" transform="translate(99.97404 211.1655)" id="svgjsEllipse2937" fill="#FFFFFF" stroke="#EF0E41" stroke-width="2.5" />
      <path d="M0 2.28573C0 1.02336 1.02335 0 2.28571 0C3.54807 0 4.57141 1.02336 4.57141 2.28573C4.57141 3.5481 3.54807 4.57146 2.28571 4.57146C1.02335 4.57146 0 3.5481 0 2.28573Z" transform="translate(82.60254 177.3369)" id="svgjsEllipse2943" fill="#FFFFFF" stroke="#EF0E41" stroke-width="2.5" />
      <path d="M0 2.28569C0 1.02334 1.02335 0 2.28571 0C3.54807 0 4.57141 1.02334 4.57141 2.28569C4.57141 3.54804 3.54807 4.57138 2.28571 4.57138C1.02335 4.57138 0 3.54804 0 2.28569Z" transform="translate(82.60254 155.3939)" id="svgjsEllipse2946" fill="#FFFFFF" stroke="#EF0E41" stroke-width="2.5" />
      <path d="M0 2.28572C0 1.02335 1.02334 0 2.2857 0C3.54806 0 4.5714 1.02335 4.5714 2.28572C4.5714 3.54809 3.54806 4.57144 2.2857 4.57144C1.02334 4.57144 0 3.54809 0 2.28572Z" transform="translate(116.8883 121.5652)" id="svgjsEllipse2949" fill="#FFFFFF" stroke="#EF0E41" stroke-width="2.5" />
      <path d="M0 2.28572C0 1.02335 1.02335 0 2.28571 0C3.54807 0 4.57141 1.02335 4.57141 2.28572C4.57141 3.54808 3.54807 4.57143 2.28571 4.57143C1.02335 4.57143 0 3.54808 0 2.28572Z" transform="translate(146.1457 94.5937)" id="svgjsEllipse2952" fill="#FFFFFF" stroke="#EF0E41" stroke-width="2.5" />
      <path d="M0 2.2857C0 1.02334 1.02335 0 2.28571 0C3.54807 0 4.57141 1.02334 4.57141 2.2857C4.57141 3.54806 3.54807 4.5714 2.28571 4.5714C1.02335 4.5714 0 3.54806 0 2.2857Z" transform="translate(146.1457 77.22221)" id="svgjsEllipse2955" fill="#FFFFFF" stroke="#EF0E41" stroke-width="2.5" />
      <path d="M0 2.28573C0 1.02335 1.02334 0 2.28569 0C3.54804 0 4.57138 1.02335 4.57138 2.28573C4.57138 3.5481 3.54804 4.57145 2.28569 4.57145C1.02334 4.57145 0 3.5481 0 2.28573Z" transform="translate(127.8598 45.67931)" id="svgjsEllipse2958" fill="#FFFFFF" stroke="#EF0E41" stroke-width="2.5" />
      <path d="M0 2.28573C0 1.02336 1.02334 0 2.28569 0C3.54804 0 4.57138 1.02336 4.57138 2.28573C4.57138 3.5481 3.54804 4.57146 2.28569 4.57146C1.02334 4.57146 0 3.5481 0 2.28573Z" transform="translate(127.8598 18.25063)" id="svgjsEllipse2961" fill="#FFFFFF" stroke="#EF0E41" stroke-width="2.5" />
      <path d="M0 2.28572C0 1.02335 1.02335 0 2.28571 0C3.54807 0 4.57141 1.02335 4.57141 2.28572C4.57141 3.54809 3.54807 4.57144 2.28571 4.57144C1.02335 4.57144 0 3.54809 0 2.28572Z" transform="translate(264.3631 287.0515)" id="svgjsEllipse2964" fill="#FFFFFF" stroke="#FFC933" stroke-width="2.5" />
      <path d="M0 2.28572C0 1.02335 1.02335 0 2.28571 0C3.54808 0 4.57143 1.02335 4.57143 2.28572C4.57143 3.54809 3.54808 4.57144 2.28571 4.57144C1.02335 4.57144 0 3.54809 0 2.28572Z" transform="translate(240.1345 287.0515)" id="svgjsEllipse2967" fill="#FFFFFF" stroke="#FFC933" stroke-width="2.5" />
      <path d="M0 2.28572C0 1.02335 1.02334 0 2.2857 0C3.54805 0 4.5714 1.02335 4.5714 2.28572C4.5714 3.54809 3.54805 4.57144 2.2857 4.57144C1.02334 4.57144 0 3.54809 0 2.28572Z" transform="translate(215.6772 287.0515)" id="svgjsEllipse2970" fill="#FFFFFF" stroke="#FFC933" stroke-width="2.5" />
      <path d="M0 2.28572C0 1.02335 1.02335 0 2.28571 0C3.54807 0 4.57141 1.02335 4.57141 2.28572C4.57141 3.54809 3.54807 4.57144 2.28571 4.57144C1.02335 4.57144 0 3.54809 0 2.28572Z" transform="translate(196.4315 265.1085)" id="svgjsEllipse2973" fill="#FFFFFF" stroke="#FFC933" stroke-width="2.5" />
      <path d="M0 2.28571C0 1.02335 1.02335 0 2.28571 0C3.54807 0 4.57141 1.02335 4.57141 2.28571C4.57141 3.54807 3.54807 4.57141 2.28571 4.57141C1.02335 4.57141 0 3.54807 0 2.28571Z" transform="translate(196.4315 246.8229)" id="svgjsEllipse2976" fill="#FFFFFF" stroke="#FFC933" stroke-width="2.5" />
      <path d="M0 2.28571C0 1.02335 1.02335 0 2.28571 0C3.54807 0 4.57141 1.02335 4.57141 2.28571C4.57141 3.54807 3.54807 4.57141 2.28571 4.57141C1.02335 4.57141 0 3.54807 0 2.28571Z" transform="translate(196.4315 199.2797)" id="svgjsEllipse2979" fill="#FFFFFF" stroke="#FFC933" stroke-width="2.5" />
      <path d="M0 2.28571C0 1.02335 1.02333 0 2.28568 0C3.54802 0 4.57135 1.02335 4.57135 2.28571C4.57135 3.54807 3.54802 4.57141 2.28568 4.57141C1.02333 4.57141 0 3.54807 0 2.28571Z" transform="translate(168.6371 199.2797)" id="svgjsEllipse2982" fill="#FFFFFF" stroke="#FFC933" stroke-width="2.5" />
      <path d="M0 2.28571C0 1.02335 1.02335 0 2.28571 0C3.54807 0 4.57141 1.02335 4.57141 2.28571C4.57141 3.54807 3.54807 4.57141 2.28571 4.57141C1.02335 4.57141 0 3.54807 0 2.28571Z" transform="translate(144.9114 199.2797)" id="svgjsEllipse2985" fill="#FFFFFF" stroke="#FFC933" stroke-width="2.5" />
      <path d="M0 2.28571C0 1.02335 1.02335 0 2.28572 0C3.5481 0 4.57145 1.02335 4.57145 2.28571C4.57145 3.54807 3.5481 4.57141 2.28572 4.57141C1.02335 4.57141 0 3.54807 0 2.28571Z" transform="translate(125.4826 199.2797)" id="svgjsEllipse2988" fill="#FFFFFF" stroke="#FFC933" stroke-width="2.5" />
      <path d="M0 2.28571C0 1.02335 1.02334 0 2.2857 0C3.54806 0 4.5714 1.02335 4.5714 2.28571C4.5714 3.54807 3.54806 4.57141 2.2857 4.57141C1.02334 4.57141 0 3.54807 0 2.28571Z" transform="translate(104.0425 199.2797)" id="svgjsEllipse2991" fill="#FFFFFF" stroke="#FFC933" stroke-width="2.5" />
      <path d="M0 2.28573C0 1.02336 1.02335 0 2.28572 0C3.54809 0 4.57144 1.02336 4.57144 2.28573C4.57144 3.5481 3.54809 4.57146 2.28572 4.57146C1.02335 4.57146 0 3.5481 0 2.28573Z" transform="translate(69.80243 212.2169)" id="svgjsEllipse2994" fill="#FFFFFF" stroke="#FFC933" stroke-width="2.5" />
      <path d="M0 2.28571C0 1.02335 1.02334 0 2.2857 0C3.54805 0 4.5714 1.02335 4.5714 2.28571C4.5714 3.54808 3.54805 4.57143 2.2857 4.57143C1.02334 4.57143 0 3.54808 0 2.28571Z" transform="translate(57.45955 224.8797)" id="svgjsEllipse2997" fill="#FFFFFF" stroke="#FFC933" stroke-width="2.5" />
      <path d="M0 2.28573C0 1.02336 1.02334 0 2.2857 0C3.54805 0 4.5714 1.02336 4.5714 2.28573C4.5714 3.5481 3.54805 4.57146 2.2857 4.57146C1.02334 4.57146 0 3.5481 0 2.28573Z" transform="translate(57.45955 247.737)" id="svgjsEllipse3000" fill="#FFFFFF" stroke="#FFC933" stroke-width="2.5" />
      <path d="M0 2.28571C0 1.02335 1.02334 0 2.2857 0C3.54805 0 4.5714 1.02335 4.5714 2.28571C4.5714 3.54807 3.54805 4.57141 2.2857 4.57141C1.02334 4.57141 0 3.54807 0 2.28571Z" transform="translate(57.45955 271.0513)" id="svgjsEllipse3003" fill="#FFFFFF" stroke="#FFC933" stroke-width="2.5" />
      <path d="M0 2.28569C0 1.02334 1.02334 0 2.2857 0C3.54805 0 4.5714 1.02334 4.5714 2.28569C4.5714 3.54804 3.54805 4.57138 2.2857 4.57138C1.02334 4.57138 0 3.54804 0 2.28569Z" transform="translate(57.45955 294.3658)" id="svgjsEllipse3006" fill="#FFFFFF" stroke="#FFC933" stroke-width="2.5" />
      <path d="M0 2.28571C0 1.02335 1.02334 0 2.2857 0C3.54805 0 4.5714 1.02335 4.5714 2.28571C4.5714 3.54807 3.54805 4.57141 2.2857 4.57141C1.02334 4.57141 0 3.54807 0 2.28571Z" transform="translate(57.45955 318.5945)" id="svgjsEllipse3009" fill="#FFFFFF" stroke="#FFC933" stroke-width="2.5" />
      <path d="M0 2.28572C0 1.02335 1.02334 0 2.2857 0C3.54805 0 4.5714 1.02335 4.5714 2.28572C4.5714 3.54809 3.54805 4.57144 2.2857 4.57144C1.02334 4.57144 0 3.54809 0 2.28572Z" transform="translate(57.45955 342.3659)" id="svgjsEllipse3012" fill="#FFFFFF" stroke="#FFC933" stroke-width="2.5" />
      <path d="M0 2.28572C0 1.02335 1.02334 0 2.2857 0C3.54805 0 4.5714 1.02335 4.5714 2.28572C4.5714 3.54809 3.54805 4.57144 2.2857 4.57144C1.02334 4.57144 0 3.54809 0 2.28572Z" transform="translate(57.45955 366.5946)" id="svgjsEllipse3015" fill="#FFFFFF" stroke="#FFC933" stroke-width="2.5" />
      <path d="M0 2.28571C0 1.02335 1.02334 0 2.2857 0C3.54805 0 4.5714 1.02335 4.5714 2.28571C4.5714 3.54807 3.54805 4.57141 2.2857 4.57141C1.02334 4.57141 0 3.54807 0 2.28571Z" transform="translate(57.45955 375.7374)" id="svgjsEllipse3018" fill="#FFFFFF" stroke="#FFC933" stroke-width="2.5" />
      <path d="M0 2.28574C0 1.02336 1.02334 0 2.2857 0C3.54805 0 4.5714 1.02336 4.5714 2.28574C4.5714 3.54811 3.54805 4.57147 2.2857 4.57147C1.02334 4.57147 0 3.54811 0 2.28574Z" transform="translate(57.45955 390.3664)" id="svgjsEllipse3021" fill="#FFFFFF" stroke="#FFC933" stroke-width="2.5" />
      <path d="M0 2.28572C0 1.02335 1.02334 0 2.2857 0C3.54805 0 4.5714 1.02335 4.5714 2.28572C4.5714 3.54809 3.54805 4.57144 2.2857 4.57144C1.02334 4.57144 0 3.54809 0 2.28572Z" transform="translate(57.45955 413.6805)" id="svgjsEllipse3024" fill="#FFFFFF" stroke="#FFC933" stroke-width="2.5" />
      <path d="M0 2.28571C0 1.02335 1.02334 0 2.2857 0C3.54805 0 4.5714 1.02335 4.5714 2.28571C4.5714 3.54807 3.54805 4.57141 2.2857 4.57141C1.02334 4.57141 0 3.54807 0 2.28571Z" transform="translate(57.45955 439.7377)" id="svgjsEllipse3027" fill="#FFFFFF" stroke="#FFC933" stroke-width="2.5" />
      <path d="M0 2.28574C0 1.02336 1.02334 0 2.2857 0C3.54805 0 4.5714 1.02336 4.5714 2.28574C4.5714 3.54811 3.54805 4.57147 2.2857 4.57147C1.02334 4.57147 0 3.54811 0 2.28574Z" transform="translate(57.45955 467.6235)" id="svgjsEllipse3030" fill="#FFFFFF" stroke="#FFC933" stroke-width="2.5" />
      <path d="M0 2.28574C0 1.02336 1.02334 0 2.2857 0C3.54805 0 4.5714 1.02336 4.5714 2.28574C4.5714 3.54811 3.54805 4.57147 2.2857 4.57147C1.02334 4.57147 0 3.54811 0 2.28574Z" transform="translate(57.45955 480.8803)" id="svgjsEllipse3033" fill="#FFFFFF" stroke="#FFC933" stroke-width="2.5" />
      <path d="M0 2.28571C0 1.02335 1.02334 0 2.2857 0C3.54805 0 4.5714 1.02335 4.5714 2.28571C4.5714 3.54807 3.54805 4.57141 2.2857 4.57141C1.02334 4.57141 0 3.54807 0 2.28571Z" transform="translate(57.45955 496.4236)" id="svgjsEllipse3036" fill="#FFFFFF" stroke="#FFC933" stroke-width="2.5" />
      <path d="M0 2.28577C0 1.02337 1.02334 0 2.2857 0C3.54805 0 4.57139 1.02337 4.57139 2.28577C4.57139 3.54816 3.54805 4.57153 2.2857 4.57153C1.02334 4.57153 0 3.54816 0 2.28577Z" transform="translate(41.45946 520.6519)" id="svgjsEllipse3039" fill="#FFFFFF" stroke="#FFC933" stroke-width="2.5" />
    </g>
  </g>
</svg>